<?xml version="1.0" encoding="utf-8"?>
<!-- Generator: Adobe Illustrator 21.0.0, SVG Export Plug-In . SVG Version: 6.00 Build 0)  -->
<svg version="1.1" id="zhuzi" xmlns="http://www.w3.org/2000/svg" xmlns:xlink="http://www.w3.org/1999/xlink" x="0px" y="0px"
	 viewBox="0 0 1200 840" style="enable-background:new 0 0 1200 840;" xml:space="preserve">
<style type="text/css">
	.st0{fill:none;stroke:#231815;stroke-width:4;stroke-linecap:round;stroke-linejoin:round;stroke-miterlimit:10;}
</style>
<g id="S4">
	<line id="P009" class="st0" x1="557.1" y1="555.1" x2="624.9" y2="550.3"/>
	<line id="P008" class="st0" x1="561.4" y1="399.3" x2="628.1" y2="395.1"/>
</g>
<g id="S3_1_">
	<path id="P007" class="st0" d="M573.9,330.1c0,0-1.4,49.8-12.7,67.9c0,0,18.1,116.6-5.7,155.3c0,0,8,103.9-20,140.1l0.1,0.1
		l89.1-6.2c0,0-23.5-98.7,1.8-137.3c0,0-10.8-81.9,8.5-106.5"/>
	<path id="P006_1_" class="st0" d="M577.7,259.5c0,0,6-67.8-5.6-84l0,0.1l81.4,7.9c0,0-38.1,49.4-9.9,200.8"/>
</g>
<g id="S2_1_">
	<path id="P005" class="st0" d="M673.7,358.2c0,0-51.7-56.5,74.1-44.3c0,0-10.2,25.7-35,45.9"/>
	<path id="P004" class="st0" d="M678.2,410.1c0,0,71.3-2.6,88.6-17.5c0,0-70.4-62.3-103.4-25.2c0,0-6.2,7.6-10.2,16.8"/>
	<path id="P003" class="st0" d="M639.5,385.3c-11.5,8.8-52.5,33.2,44.1,100.1C683.6,485.4,694.6,370.1,639.5,385.3z"/>
</g>
<g id="S1">
	<path id="P002" class="st0" d="M539.8,261.7c0,0-14.8-69.4-114.5,32.1c0,0,22.9,15.9,89,7.3"/>
	<path id="P001" class="st0" d="M495.4,371.8c0,0,19.7-145.6,84.7-111C593,268.4,632.3,319.7,495.4,371.8z"/>
</g>
</svg>
